<svg width="201" height="48" viewBox="0 0 201 48" fill="none" xmlns="http://www.w3.org/2000/svg">
<rect width="200.423" height="47.322" rx="23.661" fill="white"/>
<g clip-path="url(#clip0_7591_268)">
<path d="M19.983 23.6014C19.983 21.3792 21.7766 19.5801 23.9901 19.5801V27.6247C21.7786 27.6247 19.983 25.8256 19.983 23.6034M29.8323 16.7214L27.7942 19.6019C29.8146 19.8075 31.3894 21.5196 31.3894 23.6034C31.3894 25.8256 29.5958 27.6247 27.3823 27.6247V13.1113H23.9881V16.2884C19.9652 16.2884 16.7031 19.5624 16.7031 23.6014C16.7031 27.6405 19.9652 30.9144 23.9901 30.9144V34.2081H27.3842V30.9144C31.4091 30.9144 34.6712 27.6385 34.6712 23.6014C34.6712 20.4263 32.6509 17.7297 29.8343 16.7194" fill="#020604"/>
<path d="M46.402 26.1347C45.7161 26.8919 44.7286 27.3703 43.6288 27.3703C41.5552 27.3703 39.8759 25.6839 39.8759 23.6021C39.8759 21.5203 41.5572 19.8339 43.6288 19.8339C44.4389 19.8339 45.1879 20.0949 45.7989 20.5318L47.8448 17.6433C46.6523 16.7932 45.2017 16.2871 43.6288 16.2871C39.6058 16.2871 36.3438 19.5611 36.3438 23.6001C36.3438 27.6392 39.6058 30.9151 43.6288 30.9151C45.4914 30.9151 47.1826 30.2073 48.4716 29.0547L46.404 26.1307L46.402 26.1347Z" fill="#020604"/>
<path d="M54.7411 23.6025L59.7575 16.5801H63.6148L58.5571 23.5016L63.8789 30.6229H59.9664L54.7392 23.6025H54.7411ZM54.27 30.6229H50.5625V16.5801H54.27V30.6229Z" fill="#020604"/>
<path d="M74.9948 8.35156H74.2734V38.9717H74.9948V8.35156Z" fill="#E84E0F"/>
<path d="M92.5364 23.902C94.0561 24.5268 94.8149 25.6201 94.8149 27.1799C94.8149 28.3365 94.3577 29.3151 93.4411 30.1138C92.5246 30.9126 91.2257 31.3119 89.5424 31.3119C86.7967 31.3119 84.9557 30.2107 84.0234 28.0063L86.028 26.8221C86.5582 28.3286 87.7389 29.0818 89.57 29.0818C90.4845 29.0818 91.1941 28.8841 91.6987 28.4887C92.2013 28.0933 92.4536 27.5852 92.4536 26.9605C92.4536 26.4089 92.2486 25.9601 91.8347 25.6102C91.4228 25.2622 90.8689 25.0863 90.1731 25.0863H88.1686V22.9096H89.6508C90.3466 22.9096 90.8866 22.7395 91.271 22.3995C91.6553 22.0594 91.8485 21.5968 91.8485 21.0077C91.8485 20.4185 91.6238 19.9421 91.1764 19.5743C90.727 19.2066 90.11 19.0227 89.3236 19.0227C87.7862 19.0227 86.7415 19.6752 86.1936 20.978L84.2442 19.8491C85.214 17.8286 86.9091 16.8184 89.3256 16.8184C90.8255 16.8184 92.0121 17.2039 92.8813 17.9749C93.7506 18.746 94.1862 19.693 94.1862 20.8119C94.1862 22.2077 93.6363 23.2358 92.5384 23.8961L92.5364 23.902Z" fill="#020604"/>
<path d="M107.981 17.1821H110.37V30.954H107.981V28.5856C106.791 30.4044 105.06 31.3119 102.792 31.3119C100.87 31.3119 99.23 30.61 97.8759 29.2044C96.5218 27.7987 95.8438 26.0866 95.8438 24.0681C95.8438 22.0495 96.5218 20.3354 97.8759 18.9298C99.23 17.5241 100.87 16.8223 102.792 16.8223C105.062 16.8223 106.791 17.7317 107.981 19.5486V17.1801V17.1821ZM103.093 28.9988C104.485 28.9988 105.648 28.5262 106.58 27.5793C107.514 26.6342 107.981 25.4638 107.981 24.0681C107.981 22.6723 107.514 21.5019 106.58 20.5569C105.646 19.6118 104.483 19.1374 103.093 19.1374C101.704 19.1374 100.566 19.6099 99.6321 20.5569C98.6978 21.5039 98.2327 22.6743 98.2327 24.0681C98.2327 25.4619 98.6998 26.6342 99.6321 27.5793C100.566 28.5262 101.719 28.9988 103.093 28.9988Z" fill="#020604"/>
<path d="M121.859 17.1816V19.4948H115.24V30.9536H112.852V17.1816H121.859Z" fill="#020604"/>
<path d="M134.271 29.2182C132.861 30.614 131.148 31.3118 129.136 31.3118C127.124 31.3118 125.415 30.614 124.015 29.2182C122.614 27.8224 121.914 26.1063 121.914 24.068C121.914 22.0297 122.614 20.3137 124.015 18.9179C125.417 17.5221 127.124 16.8242 129.136 16.8242C131.148 16.8242 132.861 17.5221 134.271 18.9179C135.68 20.3137 136.386 22.0297 136.386 24.068C136.386 26.1063 135.68 27.8244 134.271 29.2182ZM129.136 28.9711C130.51 28.9711 131.663 28.5025 132.597 27.5654C133.531 26.6283 133.999 25.4638 133.999 24.068C133.999 22.6723 133.531 21.5058 132.597 20.5707C131.663 19.6336 130.51 19.165 129.136 19.165C127.762 19.165 126.637 19.6336 125.702 20.5707C124.768 21.5078 124.303 22.6742 124.303 24.068C124.303 25.4618 124.77 26.6303 125.702 27.5654C126.635 28.5005 127.78 28.9711 129.136 28.9711Z" fill="#020604"/>
<path d="M145.641 16.8242C147.563 16.8242 149.201 17.5261 150.557 18.9317C151.911 20.3374 152.589 22.0495 152.589 24.07C152.589 26.0905 151.911 27.8026 150.557 29.2063C149.203 30.61 147.563 31.3138 145.641 31.3138C143.371 31.3138 141.64 30.4044 140.451 28.5875V36.4659H138.062V17.1821H140.451V19.5505C141.642 17.7317 143.371 16.8242 145.641 16.8242ZM145.338 28.9987C146.711 28.9987 147.865 28.5262 148.799 27.5792C149.733 26.6342 150.2 25.4638 150.2 24.068C150.2 22.6723 149.733 21.5019 148.799 20.5568C147.865 19.6118 146.711 19.1373 145.338 19.1373C143.964 19.1373 142.783 19.6098 141.851 20.5568C140.917 21.5038 140.449 22.6742 140.449 24.068C140.449 25.4618 140.917 26.6342 141.851 27.5792C142.785 28.5262 143.946 28.9987 145.338 28.9987Z" fill="#020604"/>
<path d="M166.614 29.2182C165.205 30.614 163.492 31.3118 161.48 31.3118C159.467 31.3118 157.758 30.614 156.359 29.2182C154.958 27.8224 154.258 26.1063 154.258 24.068C154.258 22.0297 154.958 20.3137 156.359 18.9179C157.76 17.5221 159.467 16.8242 161.48 16.8242C163.492 16.8242 165.205 17.5221 166.614 18.9179C168.024 20.3137 168.729 22.0297 168.729 24.068C168.729 26.1063 168.024 27.8244 166.614 29.2182ZM161.48 28.9711C162.854 28.9711 164.007 28.5025 164.941 27.5654C165.875 26.6283 166.342 25.4638 166.342 24.068C166.342 22.6723 165.875 21.5058 164.941 20.5707C164.007 19.6336 162.854 19.165 161.48 19.165C160.106 19.165 158.98 19.6336 158.046 20.5707C157.112 21.5078 156.647 22.6742 156.647 24.068C156.647 25.4618 157.114 26.6303 158.046 27.5654C158.98 28.5025 160.124 28.9711 161.48 28.9711Z" fill="#020604"/>
<path d="M181.83 28.6681H183.724V34.6447H181.363V30.9536H171.064V34.6447H168.703V28.6681H170.379C171.258 27.4562 171.697 25.758 171.697 23.5714V17.1816H181.83V28.6681ZM173.099 28.6681H179.469V19.4137H174.058V23.5734C174.058 25.6295 173.737 27.3297 173.097 28.6701L173.099 28.6681Z" fill="#020604"/>
</g>
<defs>
<clipPath id="clip0_7591_268">
<rect width="167.019" height="30.6201" fill="white" transform="translate(16.7031 8.35156)"/>
</clipPath>
</defs>
</svg>
