<svg viewBox="0 0 80 80" fill="none" xmlns="http://www.w3.org/2000/svg">
<path d="M71.6515 26.5621C73.309 21.3015 72.0099 15.3018 67.7925 11.2315L67.7829 11.2219C63.7639 7.34369 58.0937 6.16933 53.0699 7.65727C50.4908 3.09745 45.595 0 40.008 0H39.9952C34.1298 0 29.026 3.41105 26.5653 8.34845C21.3048 6.69092 15.305 7.99009 11.2316 12.2075L11.222 12.2171C7.34373 16.2361 6.16933 21.9063 7.65727 26.9301C3.09745 29.5092 0 34.405 0 39.992V40.0048C0 45.8702 3.41109 50.974 8.34849 53.4347C6.69096 58.6952 7.99013 64.695 12.2076 68.7653L12.2171 68.7748C16.2361 72.6531 21.9064 73.8274 26.9302 72.3395C29.5093 76.8993 34.405 79.9968 39.992 79.9968H40.0048C45.8702 79.9968 50.974 76.5857 53.4347 71.6483C58.6952 73.3059 64.6951 72.0067 68.7685 67.7893L68.778 67.7797C72.6563 63.7606 73.8307 58.0905 72.3427 53.0667C76.9025 50.4876 80 45.5918 80 40.0048V39.992C80 34.1266 76.5889 29.0228 71.6515 26.5621Z" fill="#88BF4A"/>
</svg>
