<svg viewBox="0 0 442 140" fill="none" xmlns="http://www.w3.org/2000/svg">
<g clip-path="url(#clip0_7475_94)">
<path d="M370.924 70.0188C383.28 68.8194 395.635 67.5824 407.99 66.4579C416.874 65.6333 425.758 64.9586 434.642 64.0965C437.703 63.7966 440.166 64.3214 440.988 67.6199C441.622 70.1313 439.345 72.2678 435.501 72.8301C426.281 74.1045 417.061 75.3414 407.804 76.5409C392.164 78.565 376.449 80.2143 360.883 82.6882C350.917 84.2625 343.004 82.2009 337.405 73.3923C334.418 68.6694 329.827 67.2451 324.676 67.5824C312.694 68.3321 300.675 69.2317 288.73 70.2062C268.499 71.8555 248.267 73.5797 228.036 75.304C204.594 77.2531 101.907 87.3736 101.907 87.3736L87.1628 108.177L67.3794 109.339L81.937 88.9104L70.0296 90.0349L57.637 109.789L37.7789 111.063L49.313 92.059L38.7867 93.071L26.3941 111.738L5.86409 112.862L22.2507 86.2491C22.2507 86.2491 -0.332234 61.6226 0.00371132 61.5851L19.1526 59.9358L37.3683 79.8394L50.2835 78.5275L32.3664 58.5489L51.366 56.7872L68.9844 76.6159L82.8328 75.3789L62.9374 55.7002L82.4596 53.901L102.056 73.5797C102.056 73.5797 318.816 52.7765 320.495 52.6266C327.923 51.9894 333.261 48.9157 336.247 41.5315C339.308 34.1098 345.393 30.9987 353.493 30.6239C377.382 29.5369 401.234 28.075 425.124 26.7256C427.587 26.5757 430.013 26.2758 432.477 26.1634C435.501 26.0509 437.591 27.4753 437.777 30.5864C437.964 33.6226 435.874 34.972 433.112 35.1969C413.142 37.071 393.209 38.9077 373.239 40.7819C370.775 41.0068 368.349 41.1942 365.923 41.569C361.742 42.2062 359.54 44.2303 360.174 46.9666C360.995 50.5275 363.832 51.0148 366.856 50.7524C373.313 50.2276 379.734 49.5529 386.154 48.9907C401.458 47.5663 416.8 46.142 432.104 44.7926C434.754 44.5677 437.778 44.1179 438.897 47.6788C440.017 51.1647 438.412 53.7511 434.455 54.2009C424.825 55.2879 415.157 56.15 405.527 57.0496C393.171 58.2116 380.816 59.2986 368.461 60.4606C367.304 60.573 365.811 60.573 365.139 61.2477C363.758 62.6721 362.153 64.4713 361.966 66.2705C361.854 67.2451 364.318 68.9318 365.923 69.5315C367.378 70.0938 369.245 69.644 370.924 69.644C370.924 69.7189 370.924 69.7939 370.924 69.8689V70.0188Z" fill="white"/>
<path d="M105.375 47.7912V41.5689L110.34 40.5569V7.27175L105.375 6.25971V0H141.881V12.5569H134.042L133.669 8.02142H120.791V40.5569L125.83 41.5689V47.7912H105.375Z" fill="white"/>
<path d="M145.281 47.7912V41.5689L150.32 40.5569V7.27175L145.281 6.25971V0H168.163C171.896 0 175.106 0.637215 177.831 1.94913C180.555 3.26104 182.646 5.06024 184.102 7.3842C185.557 9.70817 186.304 12.4444 186.304 15.5556C186.304 18.6667 185.557 21.328 184.102 23.6519C182.646 25.9759 180.555 27.7751 177.831 29.0495C175.106 30.324 171.896 30.9987 168.163 30.9987H160.772V40.5569L165.774 41.5689V47.7912H145.281ZM160.809 22.9398H168.2C170.738 22.9398 172.642 22.2651 173.911 20.8782C175.18 19.4913 175.852 17.7671 175.852 15.6305C175.852 13.494 175.218 11.6198 173.911 10.1954C172.642 8.77108 170.701 8.0589 168.2 8.0589H160.809V22.9772V22.9398Z" fill="white"/>
<path d="M188.688 47.7912V41.5689L193.727 40.5569V7.27175L188.688 6.25971V0H209.143V6.22222L204.104 7.23427V27.7376L204.29 27.8126L222.394 9.78313V7.23427L217.392 6.22222V0H237.885V6.22222L232.92 7.23427V40.5569L237.885 41.5689V47.7912H217.392V41.5689L222.394 40.5569V20.4284L222.207 20.3534L204.104 38.4578V40.5569L209.143 41.5689V47.7912H188.688Z" fill="white"/>
<path d="M241.247 47.7912V39.7697H242.516C244.009 39.6198 245.203 39.2075 246.174 38.5703C247.144 37.9331 247.891 36.9585 248.376 35.6091C248.899 34.2597 249.272 32.4605 249.496 30.174C249.72 27.8876 249.832 25.0013 249.832 21.5154V7.27175L244.83 6.25971V0H288.167V6.22222L283.165 7.23427V40.5569L288.167 41.5689V47.7912H267.712V41.5689L272.713 40.5569V8.0589H260.209V21.5529C260.209 26.2383 259.91 30.249 259.201 33.585C258.529 36.921 257.484 39.6198 256.103 41.7189C254.722 43.8179 253.005 45.3548 250.952 46.3293C248.899 47.3039 246.51 47.7912 243.71 47.7912H241.172H241.247Z" fill="white"/>
<path d="M291.977 47.7912V41.5689L297.016 40.5569V7.27175L291.977 6.25971V0H312.507V6.22222L307.467 7.23427V17.1299H314.597C318.367 17.1299 321.614 17.7671 324.377 19.004C327.139 20.241 329.266 22.0027 330.76 24.2517C332.29 26.5007 333.037 29.162 333.037 32.2356C333.037 35.3092 332.253 38.0455 330.76 40.3695C329.229 42.6934 327.101 44.5301 324.339 45.8046C321.577 47.079 318.33 47.7537 314.597 47.7537H291.977V47.7912ZM307.467 39.7697H314.597C317.098 39.7697 319.076 39.0576 320.457 37.5957C321.876 36.1339 322.548 34.3347 322.548 32.1981C322.548 30.0616 321.838 28.4498 320.457 27.1379C319.076 25.8635 317.098 25.1888 314.56 25.1888H307.43V39.7697H307.467Z" fill="white"/>
<path d="M119.259 140C116.012 140 113.026 139.401 110.338 138.201C107.65 137.002 105.336 135.315 103.358 133.103C101.379 130.929 99.8863 128.343 98.8412 125.419C97.796 122.496 97.2734 119.272 97.2734 115.786V115.036C97.2734 111.588 97.796 108.402 98.8412 105.441C99.8863 102.48 101.417 99.9307 103.358 97.7567C105.299 95.5826 107.613 93.8584 110.338 92.6589C113.026 91.4595 116.012 90.8223 119.259 90.8223C122.507 90.8223 125.456 91.422 128.143 92.6589C130.831 93.8584 133.182 95.5826 135.198 97.7567C137.214 99.9307 138.744 102.517 139.826 105.441C140.909 108.364 141.469 111.551 141.469 115.036V115.786C141.469 119.272 140.909 122.496 139.826 125.419C138.744 128.343 137.176 130.929 135.198 133.103C133.22 135.277 130.868 137.002 128.143 138.201C125.456 139.401 122.469 140 119.259 140ZM119.259 131.941C121.797 131.941 123.962 131.267 125.717 129.917C127.471 128.568 128.778 126.656 129.673 124.257C130.569 121.858 131.017 119.01 131.017 115.786V114.961C131.017 111.775 130.569 109.002 129.673 106.603C128.778 104.204 127.434 102.33 125.679 100.943C123.925 99.5559 121.76 98.9187 119.222 98.9187C116.684 98.9187 114.444 99.5934 112.764 100.943C111.047 102.292 109.815 104.166 108.957 106.565C108.136 108.964 107.725 111.775 107.725 114.999V115.824C107.725 119.047 108.136 121.896 108.994 124.332C109.815 126.769 111.122 128.643 112.802 129.992C114.519 131.342 116.646 132.016 119.259 132.016V131.941Z" fill="white"/>
<path d="M141.584 139.326V133.103L145.802 132.279L158.867 115.786L146.437 98.5814L142.667 97.7193V91.4971H162.189V97.7193L157.635 98.1316L165.138 108.664L172.752 98.1316L168.385 97.7193V91.4971H187.534V97.7193L183.353 98.5814L171.371 114.699L184.846 132.241L189.438 133.103V139.326H169.393V133.103L173.35 132.729L165.212 121.559L156.888 132.729L160.77 133.103V139.326H141.547H141.584Z" fill="white"/>
<path d="M212.244 140C208.996 140 206.01 139.401 203.322 138.201C200.635 137.002 198.32 135.315 196.342 133.103C194.364 130.929 192.871 128.343 191.826 125.419C190.78 122.496 190.258 119.272 190.258 115.786V115.036C190.258 111.588 190.78 108.402 191.826 105.441C192.871 102.48 194.401 99.9307 196.342 97.7567C198.283 95.5826 200.597 93.8584 203.322 92.6589C206.01 91.4595 208.996 90.8223 212.244 90.8223C215.491 90.8223 218.44 91.422 221.127 92.6589C223.815 93.8584 226.167 95.5826 228.182 97.7567C230.198 99.9307 231.728 102.517 232.811 105.441C233.893 108.364 234.453 111.551 234.453 115.036V115.786C234.453 119.272 233.893 122.496 232.811 125.419C231.728 128.343 230.161 130.929 228.182 133.103C226.204 135.277 223.852 137.002 221.127 138.201C218.44 139.401 215.454 140 212.244 140ZM212.244 131.941C214.782 131.941 216.947 131.267 218.701 129.917C220.456 128.568 221.762 126.656 222.658 124.257C223.554 121.858 224.002 119.01 224.002 115.786V114.961C224.002 111.775 223.554 109.002 222.658 106.603C221.762 104.204 220.418 102.33 218.664 100.943C216.909 99.5559 214.744 98.9187 212.206 98.9187C209.668 98.9187 207.428 99.5934 205.749 100.943C204.032 102.292 202.8 104.166 201.941 106.565C201.12 108.964 200.709 111.775 200.709 114.999V115.824C200.709 119.047 201.12 121.896 201.979 124.332C202.8 126.769 204.106 128.643 205.786 129.992C207.503 131.342 209.631 132.016 212.244 132.016V131.941Z" fill="white"/>
<path d="M247.96 139.326V133.103L252.999 132.091V99.6309H244.974L244.564 105.066H236.688V91.4971H279.95V105.066H271.962L271.551 99.6309H263.451V132.091L268.49 133.103V139.326H247.96Z" fill="white"/>
<path d="M277.078 139.325V133.103L280.475 132.616L295.144 91.5342H306.156L320.788 132.616L324.148 133.103V139.325H307.201V133.103L310.411 132.503L308.62 126.581H292.569L290.852 132.503L294.062 133.103V139.325H277.078ZM294.958 119.047H306.305L301.192 103.566L300.706 102.029H300.52L299.997 103.716L294.958 119.084V119.047Z" fill="white"/>
<path d="M328.438 122.608V91.5342H338.889V122.608H328.438ZM328.438 139.325V130.442H338.889V139.325H328.438Z" fill="white"/>
</g>
<defs>
<clipPath id="clip0_7475_94">
<rect width="441.096" height="140" fill="white"/>
</clipPath>
</defs>
</svg>
