<svg viewBox="0 0 451 63" fill="none" xmlns="http://www.w3.org/2000/svg">
<g clip-path="url(#clip0_7475_93)">
<path d="M243.734 8.61074L260.959 7.92907V61.4217H273.787V7.92907L291.047 8.61074V1.54297H243.734V8.61074Z" fill="white"/>
<path d="M418.281 1.54297V61.4217H431.109V7.92907L451 8.61074V1.54297H418.281Z" fill="white"/>
<path d="M94.8437 43.2679V1.54297H82.0156V61.4217H88.826L121.076 19.6967V61.4217H133.868V1.54297H127.058L94.8437 43.2679Z" fill="white"/>
<path d="M243.874 24.7905C243.874 24.7905 239.225 25.0417 233.028 26.4409L223.983 1.57812H212.308L189.391 61.4568H195.769C202.471 48.7564 219.911 36.4506 231.01 33.1499C231.839 32.8987 232.163 33.5087 231.262 34.0468C220.704 40.2535 210.182 47.7877 205.426 55.2142C210.326 54.7478 217.173 53.2051 223.911 48.7205C236.487 40.3253 243.838 24.8264 243.838 24.8264L243.874 24.7905ZM214.074 34.0468C210.146 36.6658 207.119 39.7154 204.849 42.6573L214.758 14.4221H215.119L220.632 30.4591C218.362 31.4637 216.164 32.6476 214.074 34.0468Z" fill="white"/>
<path d="M227.375 49.8689L231.375 61.4213H245.752L238.257 40.792C234.798 45.0972 229.969 48.2903 227.375 49.8689Z" fill="white"/>
<path d="M323.619 0C306.899 0 293.062 12.3058 293.062 31.5C293.062 50.0843 304.665 63 323.619 63C340.339 63 354.176 50.0843 354.176 31.5C354.176 12.3058 342.573 0 323.619 0ZM323.619 57.5108C312.305 57.5108 307.008 45.8508 307.008 31.5C307.008 17.1492 313.35 5.48918 323.619 5.48918C334.934 5.48918 340.231 17.1492 340.231 31.5C340.231 45.8508 333.889 57.5108 323.619 57.5108Z" fill="white"/>
<path d="M54.3751 1.54297L35.061 41.5099L16.9359 1.54297H7.49505L0 61.4217H7.13471L11.9632 21.2394L28.6469 59.1973H33.7998L52.7896 19.7685L57.2939 61.4217H70.1219L63.5998 1.54297H54.3751Z" fill="white"/>
<path d="M383.224 1.57812H365.062V61.4568H377.891V40.9352C379.368 41.1146 381.242 41.2222 383.512 41.2222C398.466 41.2222 407.366 32.1812 407.366 21.2746C407.366 9.07642 398.358 1.57812 383.224 1.57812ZM380.593 35.733C379.692 35.733 378.755 35.6613 377.891 35.5895V7.03143H380.593C390.611 7.03143 394.466 13.274 394.466 21.2746C394.466 29.2752 390.611 35.7689 380.593 35.7689V35.733Z" fill="white"/>
<path d="M166.692 1.57812H148.531V61.4568H161.359V40.9352C162.873 41.1146 164.71 41.2222 166.981 41.2222C181.971 41.2222 190.835 32.1812 190.835 21.2746C190.835 9.07642 181.827 1.57812 166.692 1.57812ZM164.062 35.733C163.125 35.733 162.224 35.6613 161.359 35.5895V7.03143H164.062C174.079 7.03143 177.935 13.274 177.935 21.2746C177.935 29.2752 174.079 35.7689 164.062 35.7689V35.733Z" fill="white"/>
</g>
<defs>
<clipPath id="clip0_7475_93">
<rect width="451" height="63" fill="white"/>
</clipPath>
</defs>
</svg>
